<?xml version="1.0" encoding="UTF-8"?><svg id="b" xmlns="http://www.w3.org/2000/svg" width="1740.026" height="336.101" xmlns:xlink="http://www.w3.org/1999/xlink" viewBox="0 0 1740.026 336.101"><defs><clipPath id="c"><rect x="27.165" y="31.712" width="1685.697" height="272.678" fill="none" stroke-width="0"/></clipPath></defs><g clip-path="url(#c)"><path d="M1018.269,98.916c10.769,0,19.498-8.728,19.498-19.498s-8.728-19.491-19.498-19.491-19.498,8.728-19.498,19.491,8.728,19.498,19.498,19.498" fill="#4d4e4e" stroke-width="0"/><path d="M1024.903,121.393h-13.435c-.47,0-.94.034-1.396.087-2.189,0-4.069-.007-10.756-.007-.007,4.149-.013,8.017-.02,11.682-.007.148-.02.289-.02.43v27.702c0,14.663.013,27.783.013,46.374,0,.081-.013.154-.013.235v27.702c0,6.707,5.485,12.193,12.193,12.193h13.435c.027,0,.054-.007.081-.007,4.035,0,8.064.007,12.092,0,0-3.955.007-7.909.007-11.864,0-.107.013-.215.013-.322v-27.702c0-.06-.007-.121-.007-.175.007-15.368,0-30.737-.007-46.105,0-.107.013-.215.013-.329v-27.702c0-6.707-5.485-12.193-12.193-12.193" fill="#4d4e4e" stroke-width="0"/><path d="M1220.5,98.916c10.769,0,19.498-8.728,19.498-19.498s-8.728-19.491-19.498-19.491-19.498,8.728-19.498,19.491,8.728,19.498,19.498,19.498" fill="#4d4e4e" stroke-width="0"/><path d="M1227.133,121.393h-13.435c-.47,0-.94.034-1.396.087-2.189,0-4.069-.007-10.756-.007-.007,4.149-.013,8.017-.02,11.682-.007.148-.02.289-.02.43v27.702c0,14.663.013,27.783.013,46.374,0,.074-.013.154-.013.235v27.702c0,6.707,5.485,12.193,12.193,12.193h13.435c.027,0,.054-.007.081-.007,4.035,0,8.064.007,12.092,0,0-3.955.007-7.909.007-11.864,0-.107.013-.215.013-.322v-27.702c0-.06-.007-.121-.007-.175.007-15.368,0-30.737-.007-46.105,0-.107.013-.215.013-.329v-27.702c0-6.707-5.485-12.193-12.193-12.193" fill="#4d4e4e" stroke-width="0"/><path d="M1430.01,98.916c10.769,0,19.498-8.728,19.498-19.498s-8.728-19.491-19.498-19.491-19.498,8.728-19.498,19.491,8.728,19.498,19.498,19.498" fill="#4d4e4e" stroke-width="0"/><path d="M1436.643,121.393h-13.435c-.47,0-.94.034-1.396.087-2.189,0-4.069-.007-10.756-.007-.007,4.149-.013,8.017-.02,11.682-.007.148-.02.289-.02.43v27.702c0,14.663.013,27.783.013,46.374,0,.081-.013.154-.013.235v27.702c0,6.707,5.485,12.193,12.193,12.193h13.435c.027,0,.054-.007.081-.007,4.035,0,8.064.007,12.092,0,0-3.955.007-7.909.007-11.864,0-.107.013-.215.013-.322v-27.702c0-.06-.007-.121-.007-.175.007-15.368,0-30.737-.007-46.105,0-.107.013-.215.013-.329v-27.702c0-6.707-5.485-12.193-12.193-12.193" fill="#4d4e4e" stroke-width="0"/><path d="M1712.863,133.6c0-6.721-5.432-12.166-12.146-12.193-.027-.007-.074-.047-.094-.047-10.763-.013-7.896-.02-18.632.007-11.239,27.105-21.565,54.639-33.362,81.482-9.594-24.708-19.343-49.355-29.233-73.942-.067-.168-.175-.349-.302-.544-1.947-4.136-6.143-7.009-11.024-7.009-.107,0-.215.013-.322.02-.047-.007-.107-.02-.154-.02-10.125.013-20.25-.047-30.361.034,16.651,38.713,33.57,77.332,50.302,116.039,2.686,5.304-1.987,10.434-3.914,15.221-5.338,10.561-15.63,16.315-26.561,19.726-.074.02-.141.074-.215.107-4.774,1.652-8.205,6.177-8.205,11.515,0,1.195.181,2.357.504,3.451l-.007.02c.081.255.101.376.175.631,1.631,5.438,3.27,10.87,4.941,16.295,16.1-2.498,32.503-7.432,44.964-18.396,16.711-14.079,23.398-35.578,32.167-54.8,13.361-30.878,27.507-62.696,40.808-93.607.007,0,.007-.007.007-.007.43-1.249.665-2.585.665-3.981" fill="#4d4e4e" stroke-width="0"/><path d="M520.034,191.774c-.725,9.97-5.002,20.565-14.006,25.742-12.018,6.58-29.629,4.21-37.29-7.923-6.546-10.064-6.479-22.667-5.452-34.188,1.464-12.079,9.151-24.761,21.881-27.152,10.279-2.498,22.472.9,28.528,9.964,6.754,9.709,7.204,22.17,6.338,33.557M557.465,137.8l-.007-4.176c-.02-6.707-5.519-12.186-12.226-12.166l-12.784.027c-.235,0-.457.02-.685.034l-11.501.054s.007,11.233-.121,16.846c-16.302-25.688-56.915-26.064-76.862-4.519-15.677,16.503-20.169,40.882-17.316,62.864,1.833,16.839,9.46,33.94,23.734,43.776,10.695,7.761,24.419,10.205,37.411,8.93,13.28-.987,26.272-7.956,33.369-19.41-.007,4.962-.007-.396.067,1.215l.007,4.337c.02,6.707,5.519,12.186,12.226,12.173l2.605-.007c.067.007.134.034.201.034,7.365-.02,14.724-.04,22.096-.054-.201-41.137.242-69.43-.215-109.956" fill="#4d4e4e" stroke-width="0"/><path d="M670.361,120.984c-17.806-7.419-39.707.94-49.201,17.416l-.007-4.888c-.02-6.701-5.519-12.179-12.226-12.166l-13.287.034c-.121,0-.242.013-.363.02-3.767.013-6.781.027-13.804.013,1.068,9.286,2.041,18.598,2.034,27.971l.027,11.938c0,.107.013.208.02.316.054,17.665.06,28.172.094,44.293-.101.645-.168,1.296-.168,1.967l.06,27.729c.013,6.707,5.519,12.179,12.226,12.166l13.448-.034c.45,0,.893-.027,1.329-.081,3.182-.007,6.445-.02,10.756-.027-.007-3.525-.02-7.05-.027-10.575.067-.504.107-1.014.107-1.538l-.06-27.722c-.007-.524-.047-1.034-.114-1.538-.013-3.84-.02-7.681-.027-11.521.047-7.634-.551-15.382,1.276-22.881,2.068-9.098,9.218-16.973,18.35-19.31,9.782-2.451,20.323-1.309,29.475,2.894.034-11.488-.269-22.989.081-34.477" fill="#4d4e4e" stroke-width="0"/><path d="M1388.881,170.879c0-35.571-15.033-53.357-45.092-53.357-9.185,0-17.41,2.008-24.674,6.009-7.251,4.002-13.126,9.756-17.631,17.248l-.02-8.359c-.013-6.439-5.297-11.696-11.729-11.676l-12.75.027c-.054,0-.101.007-.148.007h-13.455c1.162,9.299,1.819,19.679,1.967,31.133l.013,7.191c.007.121.02.235.02.356v73.27l.074.067.007,2.853c.013,6.694,5.499,12.159,12.193,12.146l3.914-.013h21.639v-12.005c0-.074.013-.141.013-.215l-.013-4.586v-54.337c0-9.017,2.504-16.194,7.513-21.539,5.009-5.344,11.689-8.017,20.041-8.017,7.016,0,12.153,2.048,15.409,6.137,3.256,4.096,4.881,10.561,4.881,19.41v34.081c-.04.416-.067.846-.067,1.276l.067,27.662c.013,6.466,5.143,11.776,11.528,12.112l.02.02h.463c.06,0,.121.013.181.013l3.914-.013h21.72v-76.903Z" fill="#4d4e4e" stroke-width="0"/><path d="M408.304,214.243c-.013-.027-.04-.054-.054-.087-1.934-4.196-6.177-7.11-11.098-7.097-2.142,0-4.149.564-5.895,1.538-10.85,6.049-22.787,10.091-35.363,9.823-14.193.416-29.072-4.935-37.74-16.584-10.857-14.308-12.502-33.214-11.602-50.564.806-15.57,5.626-32.274,18.396-42.252,12.193-9.789,28.924-10.749,43.782-8.272,12.448,2.283,23.492,8.748,33.819,15.798,2.706-6.405,5.365-12.831,8.191-19.175.013-.034.02-.081.034-.114.671-1.517,1.047-3.189,1.047-4.948-.013-4.304-2.249-8.07-5.613-10.232-13.354-8.856-29.837-12.71-45.676-13.717-25.191-1.531-52.067,5.633-69.987,24.197-19.947,20.27-26.192,50.496-23.365,78.024,1.685,21.787,10.487,43.708,27.125,58.345,17.833,16.335,43.017,22.056,66.657,20.659,19.41-1.242,39.64-6.922,54.041-20.592-2.323-4.874-4.539-9.803-6.701-14.751" fill="#4d4e4e" stroke-width="0"/><path d="M1561.09,149.085v-16.08l-.02-.02c-.007-6.647-5.338-12.032-11.951-12.166l-.04-.04h-20.303v-42.084l-29.448,9.554-.02.034c-4.841,1.611-8.339,6.164-8.346,11.548l-.013.013v20.934h-24.043v15.711c-.007.134-.02.262-.02.396,0,6.734,5.459,12.199,12.193,12.199.094,0,.188-.02.282-.027l.027.027h11.562v50.1c0,16.033,4.136,28.474,12.401,37.323,8.265,8.856,20.25,13.28,35.947,13.28,8.52,0,15.785-1.175,21.794-3.511v-15.308l-.007-.007c0-.013.007-.034.007-.047,0-6.741-5.459-12.199-12.199-12.199-.027,0-.06.007-.087.007h-.235c-5.855,0-10.608-1.625-14.281-4.881-3.673-3.256-5.512-8.393-5.512-15.409v-49.348h32.315Z" fill="#4d4e4e" stroke-width="0"/><path d="M980.703,81.438c0-6.734-5.459-12.193-12.193-12.193-.175,0-.342.013-.51.027l-.06-.074-19.968.087-55.821,129.635-52.739-122.055-.02-.013c-1.893-4.297-6.19-7.291-11.186-7.278h-.027l-.027-.02-32.489.074,77.252,170.852.013.007c1.907,4.277,6.204,7.278,11.165,7.271l2.9-.007.081.04,20.464-.06,72.505-162.305-.007-.013c.43-1.242.665-2.585.665-3.975" fill="#4d4e4e" stroke-width="0"/><path d="M731.043,151.171c6.774-6.472,17.295-7.144,25.923-4.606,9.232,3.31,13.811,13.139,14.724,22.344-16.57.201-33.147.658-49.718.114,1.356-6.593,3.867-13.294,9.071-17.853M786.051,214.21c-1.746.007-3.404.383-4.908,1.047-.054.027-.121.04-.175.067-1.168.584-2.37,1.108-3.619,1.511-13.482,5.13-29.884,7.171-42.795-.504-9.722-5.835-12.307-17.732-13.495-28.165,23.701-.248,47.415-.027,71.115-.242,1.229-.013,2.457-.04,3.679-.04,5.922-.013,8.466-4.512,8.453-10.131,0-.812-.107-1.618-.175-2.43-.02-.289-.047-.577-.074-.866-1.551-16.852-7.533-33.577-21.116-44.293-24.587-19.128-64.569-14.637-83.718,10.192-9.615,12.267-14.482,27.957-14.22,43.487-.403,16.671,4.505,34.047,16.12,46.367,11.4,12.387,28.259,18.672,44.863,19.35,19.659,1.329,40.439-3.041,56.25-15.274-1.444-3.834-2.974-7.627-4.492-11.427-1.524-5.015-6.184-8.661-11.696-8.648" fill="#4d4e4e" stroke-width="0"/><path d="M1174.125,222.742c-1.491-5.049-6.157-8.728-11.689-8.728-1.813,0-3.532.403-5.083,1.115-.027.013-.067.02-.094.034-1.712.833-3.471,1.585-5.271,2.263-6.016,2.256-11.864,3.384-17.537,3.384-10.521,0-18.625-3.135-24.298-9.4-5.68-6.257-8.52-15.483-8.52-27.675,0-12.025,2.88-21.169,8.648-27.434,5.761-6.258,13.818-9.393,24.171-9.393,5.673,0,11.521,1.128,17.537,3.384,6.009,2.256,11.521,5.385,16.53,9.393l6.848-17.974c.013-.02.034-.034.04-.054.43-1.249.665-2.585.665-3.981,0-5.056-3.082-9.4-7.466-11.246-3.256-1.732-6.862-3.263-10.857-4.572-8.688-2.84-17.624-4.257-26.803-4.257-13.529,0-25.426,2.8-35.699,8.393-10.272,5.593-18.249,13.442-23.922,23.546-5.68,10.105-8.52,21.754-8.52,34.947,0,20.203,5.888,36.155,17.665,47.844,11.77,11.689,28.011,17.53,48.724,17.53,9.682,0,18.947-1.376,27.803-4.129,8.849-2.759,16.033-6.553,21.545-11.4l-4.418-11.588Z" fill="#4d4e4e" stroke-width="0"/><path d="M124.863,247.427c-3.525-36.034-10.199-82.18,18.383-111.252,37.592-38.237,104.612-13.549,111.064,21.72,9.051,49.449-24.023,76.715-76.164,109.405-47.428,29.723-50.423,9.4-53.283-19.874" fill="#e8434e" stroke-width="0"/><path d="M200.231,35.686c40.472-3.297,48.657,42.097,31.395,54.74-17.269,12.636-48.301,10.581-55.807-4.404-7.5-14.992-2.679-48.126,24.412-50.335" fill="#e8434e" stroke-width="0"/><path d="M119.129,274.961c-34.806-17.403-96.38-42.54-91.714-97.884,4.666-55.344,50.812-84.637,88.035-68.665,52.363,22.472,69.007,59.708,59.406,122.726-8.735,57.318-28.474,57.445-55.727,43.823" fill="#7697bd" stroke-width="0"/><path d="M97.184,90.499c-23.566-3.323-26.93-33.785-17.631-45.817,6.815-8.816,30.67-18.141,43.608-9.581,17.295,11.441,22.418,27.131,9.997,42.762-7.788,9.789-23.721,14.361-35.974,12.636" fill="#7697bd" stroke-width="0"/><path d="M124.863,247.427c2.256,23.096,4.619,40.6,28.79,32.368,9.574-5.371,16.792-19.719,21.203-48.657,7.009-46.011.007-78.266-24.647-101.073-2.41,1.826-4.74,3.854-6.962,6.11-28.582,29.072-21.908,75.218-18.383,111.252" fill="#972e32" stroke-width="0"/></g></svg>