<svg xmlns="http://www.w3.org/2000/svg" width="32" height="32" fill="none"><rect width="32" height="32" fill="#FF674C" rx="4"/><path fill="#fff" d="m20.527 3 .732 2.444c-1.096.3-2.058.759-2.855 1.675.427.098.794.174 1.155.265 1.146.286 2.197.756 3.051 1.593 1.336 1.31 1.763 3.342 1.044 4.96-.696 1.57-2.497 2.567-4.392 2.438-2.748-.186-4.517-2.047-4.735-4.988-.025-.325-.003-.652-.003-1.062-1.25.407-2.219 1.103-2.896 2.104-1.738 2.567-2.108 6.075-.807 8.916 1.12 2.447 3.532 3.505 6.111 3.417 1.912-.066 3.526-.825 4.865-2.299l2.123 1.909c-.316.327-.595.633-.892.922-2.855 2.772-6.245 3.298-9.903 2.107-3.542-1.156-5.438-3.782-5.966-7.379-.497-3.392.13-7.272 2.469-9.923 1.338-1.518 3.066-2.378 5.029-2.822.237-.054.519-.252.636-.46 1.085-1.908 3-3.335 5.235-3.817zm-3.2 6.954c.007 1.146.08 2.22.833 3.096.627.727 1.893.793 2.513.166.57-.573.456-1.612-.282-2.267-.857-.756-1.908-.942-3.063-.995z"/></svg>