<?xml version="1.0" encoding="UTF-8"?>
<svg id="Logo" xmlns="http://www.w3.org/2000/svg" version="1.1" viewBox="0 0 1789 576">
  <!-- Generator: Adobe Illustrator 29.2.1, SVG Export Plug-In . SVG Version: 2.1.0 Build 116)  -->
  <defs>
    <style>
      .st0 {
        fill: #2c507c;
      }

      .st1 {
        fill: #fcb647;
      }

      .st2 {
        fill: #f05057;
      }

      .st3 {
        fill: #3dbfbb;
      }
    </style>
  </defs>
  <g>
    <path class="st3" d="M250.5,336.8c7.6-7.7,21.5-7.7,28.9.3,28.7,28.8,57.6,57.6,86.3,86.4,9.1,9.1,6.2,26.3-5.2,32.2-18.1,9.2-37.6,15.6-57.5,19.2.8,13.1-5.9,26.1-16.8,33.2-9.3,6.6-21.6,7.8-32.4,4.9-16.4-4.7-28.3-21.3-27.3-38.3-20.1-3.4-39.6-10-57.8-19.3-11.2-6.3-13.8-23.2-4.6-32.3,28.8-28.8,57.6-57.6,86.4-86.4Z"/>
    <path class="st2" d="M279.2,228.2c-7.6,7.7-21.5,7.7-28.9-.3-28.7-28.8-57.6-57.6-86.3-86.4-9.1-9.1-6.2-26.3,5.2-32.2,18.1-9.2,37.6-15.6,57.5-19.2-.8-13.1,5.9-26.1,16.8-33.2,9.3-6.6,21.6-7.8,32.4-4.9,16.4,4.7,28.3,21.3,27.3,38.3,20.1,3.4,39.6,10,57.8,19.3,11.2,6.3,13.8,23.2,4.6,32.3-28.8,28.8-57.6,57.6-86.4,86.4Z"/>
    <path class="st1" d="M203.8,269.3c7.7,7.6,7.7,21.5-.3,28.9-28.8,28.7-57.6,57.6-86.4,86.3-9.1,9.1-26.3,6.2-32.2-5.2-9.2-18.1-15.6-37.6-19.2-57.5-13.1.8-26.1-5.9-33.2-16.8-6.6-9.3-7.8-21.6-4.9-32.4,4.7-16.4,21.3-28.3,38.3-27.3,3.4-20.1,10-39.6,19.3-57.8,6.3-11.2,23.2-13.8,32.3-4.6,28.8,28.8,57.6,57.6,86.4,86.4Z"/>
  </g>
  <circle class="st0" cx="605.4" cy="230" r="18.1"/>
  <path class="st0" d="M768.7,265c15.8-1.5,32.6,1.2,45.9,10.4,12.7,8.5,20.6,23,22.6,37.9,2.2,16.5.6,34.4-8.7,48.6-8.6,13.6-23.8,21.9-39.5,24-12.5,1.4-25.6,1.2-37.6-3.3-12.8-4.5-23.8-14.1-29.7-26.4-7.1-14.6-7.9-31.6-4.8-47.4,2.9-13.9,11.1-26.6,23.1-34.4,8.5-5.7,18.6-8.5,28.7-9.6ZM769.7,292.5c-11.1,2.1-18.1,13-19,23.6-1,11.9-1.5,25.3,6.1,35.3,5.3,7,14.6,9,23,8.2,9.3,0,17.5-6.6,20.6-15.1,2.9-8,3.4-16.8,2.7-25.2-.8-7.2-2.5-14.7-7.6-20.2-6.4-7-16.9-8.9-25.8-6.7Z"/>
  <path class="st0" d="M484,238.5s0,0,0-.1v-6.4c0-6.2-5.1-11.3-11.3-11.3h-117.1c-.5,0-1,0-1.4,0-3.2,0-6.5,0-9.8,0,0,.7,0,13.8,0,14.5,0,0,0,.1,0,.2v3.2c0,6.2,5.1,11.3,11.3,11.3h8.4c11.7,0,16.2,0,29.6,0h2c.2,32.6.2,65.2.2,97.8,0,.1,0,.2,0,.3v25.8c0,6.2,5.1,11.3,11.3,11.3h13.9s0,0,0,0h11.3c0-45.1,0-90.1,0-135.2,17.3-.1,34.5.2,51.8-.2,0-6.4,0-6.4,0-11.2Z"/>
  <path class="st0" d="M623,279c0-6.2-5.1-11.3-11.3-11.3h-12.5s0,0-.1,0h-11.2s0,43.1,0,80.3c0,0,0,.2,0,.3v25.7c0,6.2,5.1,11.3,11.3,11.3h9.7c4.7-.1,9.4-.1,14.1-.1,0-26.7,0-53.4,0-80.1,0-.1,0-.2,0-.3v-25.7Z"/>
  <path class="st0" d="M1444.5,282.6v-3.7c0-6.2-5.1-11.3-11.3-11.3h-.4s-22.8,0-22.8,0c0,0,0,10.4-.2,15.7-15.1-23.9-52.9-24.4-71.5-4.4-14.6,15.3-18.8,38-16.2,58.4,1.7,15.7,8.7,31.6,22,40.8,9.9,7.2,22.7,9.5,34.8,8.4,12.4-.9,24.4-7.3,31.1-18,0,0,0,0,0,0v5.2c0,6.2,5.1,11.4,11.3,11.4h11.8s0,0,0,0c3.8,0,7.6,0,11.4,0-.1-38.3.4-64.6,0-102.4ZM1409.6,332.9c-.7,9.3-4.7,19.1-13.1,23.9-11.2,6.1-27.6,3.9-34.7-7.4-6.1-9.4-6-21.1-5-31.8,1.4-11.2,8.6-23,20.4-25.2,9.6-2.3,20.9.9,26.5,9.3,6.3,9,6.6,20.6,5.8,31.2Z"/>
  <path class="st0" d="M691.9,226c0-6.2-5.1-11.3-11.3-11.3h-12.5s0,0-.1,0h-11.2s0,96.3,0,133.5c0,0,0,.2,0,.3v25.7c0,6.2,5.1,11.3,11.3,11.3h9.7c4.7-.1,9.4-.1,14.1-.1,0-26.7,0-106.6,0-133.3,0-.1,0-.2,0-.3v-25.7Z"/>
  <path class="st0" d="M563.7,267.3c-16.6-6.9-37,.8-45.8,16.1v-4.6c0-6.2-5.1-11.3-11.3-11.3h-3.1s0,0,0,0c-11,0-11.4,0-22.4,0,1,8.6,1.9,17.3,1.8,26.1,0,30.5,0,39.1,0,69.6,0,0,0,0,0,0v10.6c0,6.2,5.1,11.3,11.3,11.3h12.3c.1,0,.3,0,.4,0,3.2,0,6.5,0,10.9,0,0-16.4,0-32.8,0-49.2,0-7.1-.5-14.3,1.2-21.3,1.9-8.5,8.6-15.8,17.1-17.9,9.1-2.3,18.9-1.2,27.4,2.8,0-10.7-.2-21.4.2-32.1Z"/>
  <path class="st0" d="M1555.3,267.3c-17.6-7.4-39.5,1.8-47.3,19.1,0,0,0-.2,0-.3v-7.3c0-6.2-3.5-11.3-9.8-11.3h-3.1c0,0-22.4,0-22.4,0,1,8.6,1.9,17.3,1.8,26.1,0,29,0,38.3,0,65.4v14.7c0,6.2,5.1,11.3,11.3,11.3h2.1c8.6,0,12.8,0,21.5,0,0-16.4,0-32.8,0-49.2,0-7.1-.5-14.3,1.2-21.3,1.9-8.5,8.6-15.8,17.1-17.9,9.1-2.3,18.9-1.2,27.4,2.8,0-10.7-.2-21.4.2-32.1Z"/>
  <path class="st0" d="M1111.7,267.6s0,0,0,0c-6.7,0-7.4,0-17.4,0-10.5,25.2-20.1,50.8-31,75.7-8.9-23-30-75.7-30-75.7,0,0-27,0-36.3,0,15.5,36,31.2,71.9,46.8,107.9,2.5,4.9-1.9,9.7-3.6,14.2-5,9.8-14.5,15.2-24.7,18.3-.1,0-.2,0-.3.1-4.4,1.6-7.5,5.7-7.5,10.7s.2,2.4.6,3.5c0,.1,0,.2,0,.3,1.5,5.1,3,10.1,4.6,15.1,15-2.3,30.2-6.9,41.8-17.1,15.5-13.1,21.8-33.1,29.9-51,12.4-28.7,25.6-58.3,37.9-87,0,0,0,0,0,0,.4-1.2.6-2.4.6-3.7,0-6.2-5-11.3-11.3-11.3Z"/>
  <path class="st0" d="M1299.6,354.1s0,0,0-.1c0,0,0,0,0,0-1.8-3.9-5.7-6.6-10.3-6.6s-3.9.5-5.5,1.4c-10.1,5.6-21.2,9.3-32.9,9-13.2.4-27-4.6-35.1-15.5-10.1-13.3-11.6-30.9-10.7-47,.8-14.5,5.3-30,17.2-39.2,11.4-9.1,26.9-9.9,40.7-7.6,11.6,2.2,21.8,8.2,31.4,14.8,2.5-5.9,5-11.9,7.7-17.8,0,0,0,0,0-.1.6-1.4,1-3,1-4.6,0-4-2.1-7.5-5.2-9.5-12.4-8.3-27.7-11.9-42.4-12.9-23.4-1.5-48.4,5.1-65.1,22.4-18.6,18.8-24.5,46.9-21.9,72.5,1.5,20.3,9.7,40.7,25.1,54.3,16.5,15.2,40,20.6,61.9,19.3,18.1-1.1,36.9-6.3,50.3-19-2.1-4.5-4.2-9.1-6.2-13.7Z"/>
  <path class="st0" d="M1659.7,353.7c-1.7,0-3.2.4-4.7,1-.7.3-2.2,1-3.4,1.4-12.5,4.7-27.8,6.6-39.8-.6-9-5.4-11.4-16.5-12.5-26.2,22-.2,44.1,0,66.1,0,1.1,0,2.3,0,3.4,0,5.5,0,7.9-4.2,7.9-9.4s0-1.5-.2-2.3c0-.3,0-.5,0-.8-1.4-15.7-6.9-31.2-19.5-41.2-22.8-17.8-60-13.7-77.9,9.3-9,11.4-13.5,26-13.3,40.4-.4,15.5,4.1,31.7,14.9,43.1,10.6,11.5,26.2,17.4,41.7,18.1,18.3,1.3,37.6-2.7,52.3-14.1-1.3-3.6-2.8-7.2-4.2-10.7-1.4-4.6-5.7-8-10.8-8ZM1608.7,295c6.3-6,16.1-6.6,24.1-4.2,8.6,3.1,12.8,12.2,13.6,20.8-15.4.2-30.8.5-46.2,0,1.3-6.1,3.6-12.4,8.5-16.6Z"/>
  <path class="st0" d="M979.7,376.4c0-1.5,0-3,0-4.5,0-.3,0-.5,0-.8,0-1.3,0-2.7,0-4,0-.4,0-.8,0-1.2,0-1.4,0-2.8,0-4.2v-.8c0-1.2,0-2.5,0-3.7,0-.3,0-.6,0-.9,0-1.4,0-2.8,0-4.1,0-.3,0-.6,0-.9,0-1.2,0-2.4,0-3.5,0-.4,0-.8,0-1.2,0-1.2,0-2.5,0-3.7,0-.4,0-.8,0-1.1,0-1.2,0-2.5,0-3.7,0-.4,0-.9,0-1.3,0-1.1,0-2.2,0-3.3,0,0,0-.1,0-.2,0-1.7,0-3.5,0-5.2,0-.7,0-1.3,0-2,0-2.5,0-5.1,0-7.7,0-2.6,0-5.2,0-7.9,0-.3,0-.6,0-.9,0-1.4,0-2.8,0-4.3,0,0,0-.1,0-.2,0,0,0-.2,0-.2v-25.8c0-6.2-5.1-11.3-11.3-11.3h-3.6s0,0,0,0c0,0-8.9,0-19.8,0,0,5.2,0,10.5,0,15.7-10.2-15.3-30.3-21.5-47.8-17.7-15.7,2.8-29.1,14.1-35.7,28.4-6.2,12.9-6.7,27.7-5.1,41.6,2.3,14.1,9.2,28.1,21,36.6,10.3,7.7,23.7,10.6,36.4,9.2,12.3-1.7,23.8-8.6,30.9-18.8,0,10.6,1.5,21.7-1.6,32-3,9.9-13.6,14.9-23.3,15.3-10.1.5-20.6-.8-30.2-3.7-1.4-.4-2.7-.9-4.1-1.3-.9-.3-2.4-.6-3.6-.7,0,0-.2,0-.3,0-5.2,0-9.5,3.5-10.9,8.2,0,.1-.2,1-.3,1.2-.8,4.2-1.6,8.3-2.4,12.5,14.7,7.2,31,10.8,47.3,10.5,16.4.3,33.9-2.4,46.9-13.1,12.1-9.8,17.3-25.8,17.4-40.9,0-1.6,0-3.2,0-4.8,0-.4,0-.8,0-1.3ZM944.8,326.8c-.2,9.1-4,18.5-11.6,23.8-6.3,4.3-14.4,4.9-21.7,3.8-9.1-1.8-16.5-9-19.2-17.8-2.6-8.5-2.6-17.8-.1-26.3,2.5-8.7,9.7-16.1,18.8-17.8,9.6-2.3,21.1.2,27.3,8.4,5.8,7.3,7.1,17,6.5,26Z"/>
</svg>